<svg xmlns="http://www.w3.org/2000/svg" viewBox="-22 -22 64 64" aria-hidden="true"><circle cx="10" cy="10" r="28.8" fill="#fff" stroke="#b6b6b6" stroke-miterlimit="10" stroke-width=".15"/><path fill="#00966e" d="M38.8 10c0-3.372-.612-6.591-1.674-9.6h-54.252C-18.188 3.409-18.8 6.628-18.8 10s.612 6.591 1.674 9.6h54.252c1.062-3.009 1.674-6.228 1.674-9.6z"/><path fill="#d62612" d="M37.126 19.6h-54.252C-13.169 30.781-2.534 38.8 10 38.8s23.169-8.022 27.126-19.2z"/><path fill="#ccc" d="M10-18.5c15.6 0 28.5 12.9 28.5 28.5S25.6 38.5 10 38.5-18.5 25.6-18.5 10-5.6-18.5 10-18.5m0-1.5C-6.5-20-20-6.5-20 10s13.5 30 30 30 30-13.5 30-30-13.5-30-30-30z"/></svg>